<svg xmlns="http://www.w3.org/2000/svg" xmlns:xlink="http://www.w3.org/1999/xlink" width="2000" zoomAndPan="magnify" viewBox="0 0 1500 2999.999989" height="4000" preserveAspectRatio="xMidYMid meet" version="1.0"><defs><filter x="0%" y="0%" width="100%" height="100%" id="c0b3196978"><feColorMatrix values="0 0 0 0 1 0 0 0 0 1 0 0 0 0 1 0 0 0 1 0" color-interpolation-filters="sRGB"/></filter><g/><mask id="c00345f6c3"><g filter="url(#c0b3196978)"><rect x="-150" width="1800" fill="#000000" y="-299.999999" height="3599.999987" fill-opacity="0.4588"/></g></mask><clipPath id="4acfc237c6"><path d="M 43 27 L 453 27 L 453 468 L 43 468 Z M 43 27 " clip-rule="nonzero"/></clipPath><clipPath id="ef5429cbee"><path d="M 506.460938 416.339844 L 78.9375 496.648438 L 0.707031 80.179688 L 428.230469 -0.125 Z M 506.460938 416.339844 " clip-rule="nonzero"/></clipPath><clipPath id="941c768966"><path d="M 506.460938 416.339844 L 78.9375 496.648438 L 0.707031 80.179688 L 428.230469 -0.125 Z M 506.460938 416.339844 " clip-rule="nonzero"/></clipPath><clipPath id="6e1ae458f4"><path d="M 506.460938 416.339844 L 78.9375 496.648438 L 0.707031 80.179688 L 428.230469 -0.125 Z M 506.460938 416.339844 " clip-rule="nonzero"/></clipPath><clipPath id="f1da6de0f0"><rect x="0" width="507" y="0" height="497"/></clipPath><mask id="2a4a2efac4"><g filter="url(#c0b3196978)"><rect x="-150" width="1800" fill="#000000" y="-299.999999" height="3599.999987" fill-opacity="0.4588"/></g></mask><clipPath id="4cb5479e16"><path d="M 41 80 L 544 80 L 544 530 L 41 530 Z M 41 80 " clip-rule="nonzero"/></clipPath><clipPath id="6d41ebeed6"><path d="M 461.457031 0.976562 L 583.898438 473.625 L 122.867188 593.054688 L 0.425781 120.40625 Z M 461.457031 0.976562 " clip-rule="nonzero"/></clipPath><clipPath id="c71f311f14"><path d="M 461.457031 0.976562 L 583.898438 473.625 L 122.867188 593.054688 L 0.425781 120.40625 Z M 461.457031 0.976562 " clip-rule="nonzero"/></clipPath><clipPath id="6d3ba3f577"><path d="M 461.457031 0.976562 L 583.898438 473.625 L 122.867188 593.054688 L 0.425781 120.40625 Z M 461.457031 0.976562 " clip-rule="nonzero"/></clipPath><clipPath id="43ecb503e6"><rect x="0" width="585" y="0" height="594"/></clipPath><mask id="d4b6ba6f2c"><g filter="url(#c0b3196978)"><rect x="-150" width="1800" fill="#000000" y="-299.999999" height="3599.999987" fill-opacity="0.4588"/></g></mask><clipPath id="4e49c4af3a"><rect x="0" width="4" y="0" height="78"/></clipPath><mask id="12de057649"><g filter="url(#c0b3196978)"><rect x="-150" width="1800" fill="#000000" y="-299.999999" height="3599.999987" fill-opacity="0.4588"/></g></mask><clipPath id="8a3e24465f"><path d="M 21 42 L 642 42 L 642 651 L 21 651 Z M 21 42 " clip-rule="nonzero"/></clipPath><clipPath id="92e69d4fea"><path d="M 611.585938 0.644531 L 669.742188 627.203125 L 59.613281 683.835938 L 1.457031 57.277344 Z M 611.585938 0.644531 " clip-rule="nonzero"/></clipPath><clipPath id="ace8689992"><path d="M 611.585938 0.644531 L 669.742188 627.203125 L 59.613281 683.835938 L 1.457031 57.277344 Z M 611.585938 0.644531 " clip-rule="nonzero"/></clipPath><clipPath id="e5e1fbf07f"><path d="M 611.585938 0.644531 L 669.742188 627.203125 L 59.613281 683.835938 L 1.457031 57.277344 Z M 611.585938 0.644531 " clip-rule="nonzero"/></clipPath><clipPath id="d7f5b4ad00"><rect x="0" width="670" y="0" height="684"/></clipPath><mask id="fe4b75d537"><g filter="url(#c0b3196978)"><rect x="-150" width="1800" fill="#000000" y="-299.999999" height="3599.999987" fill-opacity="0.4588"/></g></mask><clipPath id="64692d41a7"><path d="M 114 190 L 669 190 L 669 613 L 114 613 Z M 114 190 " clip-rule="nonzero"/></clipPath><clipPath id="e4eb5c7f15"><path d="M 367.265625 1.121094 L 761.242188 376.972656 L 394.707031 761.179688 L 0.734375 385.328125 Z M 367.265625 1.121094 " clip-rule="nonzero"/></clipPath><clipPath id="1479647c1b"><path d="M 367.265625 1.121094 L 761.242188 376.972656 L 394.707031 761.179688 L 0.734375 385.328125 Z M 367.265625 1.121094 " clip-rule="nonzero"/></clipPath><clipPath id="da5262fa03"><path d="M 367.265625 1.121094 L 761.242188 376.972656 L 394.707031 761.179688 L 0.734375 385.328125 Z M 367.265625 1.121094 " clip-rule="nonzero"/></clipPath><clipPath id="c569c6737f"><rect x="0" width="762" y="0" height="678"/></clipPath><mask id="0a136e9e25"><g filter="url(#c0b3196978)"><rect x="-150" width="1800" fill="#000000" y="-299.999999" height="3599.999987" fill-opacity="0.4588"/></g></mask><clipPath id="65cd39f001"><path d="M 17 10 L 174 10 L 174 179 L 17 179 Z M 17 10 " clip-rule="nonzero"/></clipPath><clipPath id="d216790f7a"><path d="M 194.3125 159.390625 L 31.410156 189.988281 L 1.503906 30.773438 L 164.402344 0.175781 Z M 194.3125 159.390625 " clip-rule="nonzero"/></clipPath><clipPath id="5d2bbdc6a4"><path d="M 194.3125 159.390625 L 31.410156 189.988281 L 1.503906 30.773438 L 164.402344 0.175781 Z M 194.3125 159.390625 " clip-rule="nonzero"/></clipPath><clipPath id="f1a83caf2d"><path d="M 194.3125 159.390625 L 31.410156 189.988281 L 1.503906 30.773438 L 164.402344 0.175781 Z M 194.3125 159.390625 " clip-rule="nonzero"/></clipPath><clipPath id="49f167db81"><rect x="0" width="195" y="0" height="191"/></clipPath><mask id="a319eed4e9"><g filter="url(#c0b3196978)"><rect x="-150" width="1800" fill="#000000" y="-299.999999" height="3599.999987" fill-opacity="0.4588"/></g></mask><clipPath id="acd4e6d88b"><path d="M 1 3 L 138 3 L 138 135.742188 L 1 135.742188 Z M 1 3 " clip-rule="nonzero"/></clipPath><clipPath id="b0b0010674"><rect x="0" width="140" y="0" height="136"/></clipPath></defs><g mask="url(#c00345f6c3)"><g transform="matrix(1, 0, 0, 1, 974, 0.000000000000341558)"><g clip-path="url(#f1da6de0f0)"><g clip-path="url(#4acfc237c6)"><g clip-path="url(#ef5429cbee)"><g clip-path="url(#941c768966)"><g clip-path="url(#6e1ae458f4)"><path fill="#c63e68" d="M 43.511719 287.878906 C 41.425781 248.214844 79.035156 246.300781 88.8125 214.921875 C 92.863281 201.753906 84.550781 187.753906 86.351562 174.378906 C 89.210938 153.761719 104.949219 137.875 122.242188 127.476562 C 150.890625 110.320312 182.964844 106.925781 214.648438 98.660156 C 234.800781 93.402344 233.242188 81.183594 237.535156 64.289062 C 242.359375 45.722656 259.472656 31.574219 278.289062 28.144531 C 297.203125 24.695312 317.136719 31.148438 332.039062 43.28125 C 349.390625 57.261719 360.375 78.222656 378.820312 90.742188 C 397.28125 103.359375 421.632812 106.457031 437.875 121.804688 C 453.355469 136.457031 456.710938 159.375 448.476562 178.796875 C 440.492188 197.328125 421.734375 202.742188 409.113281 217.308594 C 401.324219 226.238281 405.039062 238.15625 399.503906 248.449219 C 391.378906 263.433594 378.492188 274.894531 363.976562 283.296875 C 350.421875 291.207031 334.488281 294.304688 327.453125 310.03125 C 317.730469 331.621094 335.128906 360.417969 332.558594 384.242188 C 330.074219 407.417969 317.441406 426.402344 295.265625 434.878906 C 278.074219 441.367188 253.363281 429.082031 239.785156 442.460938 C 217.859375 464.035156 171.191406 479.316406 146.699219 453.640625 C 126.148438 432.160156 139.023438 409.976562 149.316406 388.070312 C 156.136719 373.433594 173.207031 349.515625 149 341.027344 C 128.847656 333.984375 108.171875 347.644531 87.898438 342.203125 C 60.878906 334.976562 44.75 311.828125 43.511719 287.878906 Z M 43.511719 287.878906 " fill-opacity="1" fill-rule="nonzero"/></g></g></g></g></g></g></g><g mask="url(#2a4a2efac4)"><g transform="matrix(1, 0, 0, 1, 33, 742)"><g clip-path="url(#43ecb503e6)"><g clip-path="url(#4cb5479e16)"><g clip-path="url(#6d41ebeed6)"><g clip-path="url(#c71f311f14)"><g clip-path="url(#6d3ba3f577)"><path fill="#c6b4bb" d="M 352.5 529.246094 C 308.183594 534.613281 303.191406 492.636719 267.265625 484.085938 C 252.195312 480.558594 237.128906 490.933594 221.996094 489.941406 C 198.660156 488.3125 179.65625 471.902344 166.6875 453.328125 C 145.277344 422.558594 139.039062 386.898438 127.371094 352.046875 C 119.949219 329.878906 106.371094 332.558594 87.101562 329.039062 C 65.917969 325.058594 48.757812 306.972656 43.484375 286.164062 C 38.1875 265.242188 43.914062 242.425781 56.382812 224.8125 C 70.746094 204.3125 93.417969 190.410156 106.054688 168.796875 C 118.804688 147.15625 120.433594 119.648438 136.410156 100.285156 C 151.664062 81.832031 177.109375 76.320312 199.507812 84.0625 C 220.890625 91.585938 228.386719 112.179688 245.675781 125.199219 C 256.273438 133.238281 269.359375 128.171875 281.316406 133.582031 C 298.730469 141.539062 312.5625 155.09375 323.082031 170.707031 C 332.976562 185.28125 337.65625 202.886719 355.824219 209.566406 C 380.769531 218.808594 411.742188 197.121094 438.648438 198.179688 C 464.820312 199.191406 487.0625 211.886719 498.25 236.078125 C 506.824219 254.828125 494.921875 283.441406 510.953125 297.628906 C 536.800781 320.535156 557.476562 371.632812 530.542969 401.023438 C 508.015625 425.675781 482.167969 412.953125 456.820312 403.101562 C 439.898438 396.578125 411.785156 379.289062 404.101562 407.050781 C 397.730469 430.152344 414.617188 452.265625 410.046875 475.382812 C 403.992188 506.199219 379.257812 526.027344 352.5 529.246094 Z M 352.5 529.246094 " fill-opacity="1" fill-rule="nonzero"/></g></g></g></g></g></g></g><g mask="url(#d4b6ba6f2c)"><g transform="matrix(1, 0, 0, 1, 1417, 1140)"><g clip-path="url(#4e49c4af3a)"><g fill="#ffffff" fill-opacity="1"><g transform="translate(1.771517, 56.132501)"><g/></g></g></g></g></g><g mask="url(#12de057649)"><g transform="matrix(1, 0, 0, 1, 656, 1590)"><g clip-path="url(#d7f5b4ad00)"><g clip-path="url(#8a3e24465f)"><g clip-path="url(#92e69d4fea)"><g clip-path="url(#ace8689992)"><g clip-path="url(#e5e1fbf07f)"><path fill="#c63e68" d="M 364.402344 650.128906 C 307.015625 647.796875 309.316406 593.371094 265.449219 575.066406 C 247.039062 567.464844 225.765625 577.546875 206.75 573.15625 C 177.449219 566.265625 156.691406 541.460938 144.042969 515.152344 C 123.195312 471.582031 122.617188 424.933594 114.976562 378.1875 C 110.113281 348.453125 92.3125 349.054688 68.570312 340.59375 C 42.484375 331.152344 24.414062 304.597656 22.003906 277.039062 C 19.582031 249.332031 31.554688 221.488281 51.023438 201.660156 C 73.488281 178.550781 105.140625 165.550781 125.640625 140.671875 C 146.289062 115.777344 154.027344 81.121094 178.308594 59.792969 C 201.480469 39.472656 234.929688 37.71875 261.785156 52.195312 C 287.390625 66.1875 292.667969 93.929688 311.945312 114.066406 C 323.75 126.488281 341.410156 122.746094 355.484375 132.101562 C 375.964844 145.820312 390.734375 165.921875 400.882812 187.957031 C 410.449219 208.546875 412.765625 231.90625 434.460938 244.160156 C 464.242188 261.070312 508.042969 239.882812 541.996094 246.792969 C 575.03125 253.488281 600.664062 274.238281 609.886719 307.320312 C 616.917969 332.949219 595.910156 366.886719 613.347656 388.242188 C 641.457031 422.726562 657.191406 492 616.929688 523.820312 C 583.242188 550.523438 553.035156 529 522.875 511.226562 C 502.722656 499.429688 470.582031 471.628906 455.105469 505.351562 C 442.253906 533.425781 459.144531 565.046875 448.582031 593.507812 C 434.546875 631.453125 399.050781 651.570312 364.402344 650.128906 Z M 364.402344 650.128906 " fill-opacity="1" fill-rule="nonzero"/></g></g></g></g></g></g></g><g mask="url(#fe4b75d537)"><g transform="matrix(1, 0, 0, 1, 98, 2322)"><g clip-path="url(#c569c6737f)"><g clip-path="url(#64692d41a7)"><g clip-path="url(#e4eb5c7f15)"><g clip-path="url(#1479647c1b)"><g clip-path="url(#da5262fa03)"><path fill="#c6b4bb" d="M 574.734375 565.71875 C 535.90625 596.855469 506.488281 560.023438 467.425781 573.039062 C 451.074219 578.558594 442.902344 597.246094 427.980469 605.203125 C 404.917969 617.378906 377.257812 613.003906 354.046875 603.03125 C 315.671875 586.460938 288.789062 556.339844 257.238281 530.175781 C 237.167969 513.535156 225.875 524.058594 205.554688 532.050781 C 183.140625 540.734375 156.246094 533.6875 139.015625 517.070312 C 121.691406 500.363281 113.695312 475.378906 115.152344 451.355469 C 116.703125 423.488281 130.003906 396.984375 129.261719 369.082031 C 128.613281 341.082031 113.980469 314.054688 117.730469 286.316406 C 121.328125 259.863281 142.191406 239.683594 167.964844 233.847656 C 192.648438 228.40625 211.855469 243.511719 235.894531 245.683594 C 250.664062 247.070312 260.082031 234.578125 274.59375 232.675781 C 295.769531 229.972656 316.84375 234.6875 335.996094 243.296875 C 353.941406 251.289062 368.730469 265.21875 389.867188 260.867188 C 418.9375 254.957031 435.523438 216.199219 461.636719 201.386719 C 487.027344 186.953125 515.566406 185.90625 540.390625 202.25 C 559.546875 214.976562 565.097656 249.085938 588.628906 253.101562 C 626.589844 259.609375 676.226562 295.871094 667.996094 339.554688 C 661.152344 376.15625 629.183594 379.296875 599.375 384.863281 C 579.503906 388.632812 542.707031 388.777344 551.75 419.597656 C 559.304688 445.238281 588.308594 456.261719 597.574219 480.851562 C 609.960938 513.605469 598.195312 546.9375 574.734375 565.71875 Z M 574.734375 565.71875 " fill-opacity="1" fill-rule="nonzero"/></g></g></g></g></g></g></g><g mask="url(#0a136e9e25)"><g transform="matrix(1, 0, 0, 1, 1052, 1142)"><g clip-path="url(#49f167db81)"><g clip-path="url(#65cd39f001)"><g clip-path="url(#d216790f7a)"><g clip-path="url(#5d2bbdc6a4)"><g clip-path="url(#f1a83caf2d)"><path fill="#c63e68" d="M 17.859375 110.179688 C 17.054688 95.015625 31.386719 94.292969 35.105469 82.300781 C 36.648438 77.269531 33.476562 71.914062 34.160156 66.800781 C 35.246094 58.921875 41.238281 52.851562 47.828125 48.882812 C 58.742188 42.328125 70.960938 41.039062 83.035156 37.886719 C 90.714844 35.882812 90.117188 31.210938 91.75 24.753906 C 93.582031 17.65625 100.101562 12.253906 107.273438 10.945312 C 114.480469 9.632812 122.078125 12.105469 127.761719 16.742188 C 134.375 22.09375 138.566406 30.109375 145.597656 34.898438 C 152.636719 39.722656 161.917969 40.914062 168.113281 46.785156 C 174.011719 52.390625 175.296875 61.152344 172.164062 68.574219 C 169.125 75.65625 161.980469 77.722656 157.171875 83.285156 C 154.207031 86.695312 155.625 91.253906 153.515625 95.1875 C 150.421875 100.914062 145.515625 105.292969 139.984375 108.5 C 134.820312 111.519531 128.75 112.699219 126.074219 118.710938 C 122.371094 126.960938 129.007812 137.972656 128.035156 147.078125 C 127.09375 155.9375 122.285156 163.191406 113.835938 166.429688 C 107.285156 168.902344 97.867188 164.203125 92.695312 169.3125 C 84.34375 177.554688 66.558594 183.386719 57.21875 173.566406 C 49.386719 165.351562 54.285156 156.875 58.203125 148.5 C 60.800781 142.910156 67.300781 133.769531 58.070312 130.519531 C 50.390625 127.820312 42.515625 133.039062 34.789062 130.953125 C 24.488281 128.1875 18.335938 119.332031 17.859375 110.179688 Z M 17.859375 110.179688 " fill-opacity="1" fill-rule="nonzero"/></g></g></g></g></g></g></g><g mask="url(#a319eed4e9)"><g transform="matrix(1, 0, 0, 1, 569, 583)"><g clip-path="url(#b0b0010674)"><g clip-path="url(#acd4e6d88b)"><path fill="#c6b4bb" d="M 137.351562 68.191406 C 135.679688 80.734375 123.839844 79.121094 118.953125 88.371094 C 116.921875 92.257812 118.691406 97.128906 117.347656 101.210938 C 115.25 107.496094 109.410156 111.546875 103.410156 113.785156 C 93.472656 117.472656 83.273438 116.648438 72.910156 117.375 C 66.320312 117.835938 66.089844 121.75 63.761719 126.789062 C 61.171875 132.320312 55.003906 135.742188 48.9375 135.710938 C 42.839844 135.675781 37 132.484375 33.066406 127.808594 C 28.472656 122.410156 26.277344 115.199219 21.257812 110.199219 C 16.242188 105.160156 8.832031 102.757812 4.664062 96.996094 C 0.699219 91.5 0.992188 84.125 4.699219 78.53125 C 8.273438 73.195312 14.4375 72.605469 19.226562 68.785156 C 22.179688 66.449219 21.71875 62.496094 24.046875 59.601562 C 27.457031 55.386719 32.148438 52.554688 37.164062 50.777344 C 41.855469 49.101562 47.003906 49.066406 50.117188 44.558594 C 54.414062 38.367188 50.675781 28.328125 52.875 21.019531 C 55.003906 13.910156 60.054688 8.707031 67.46875 7.359375 C 73.207031 6.339844 80.191406 11.636719 85.210938 8.246094 C 93.308594 2.785156 108.753906 0.742188 114.886719 10.222656 C 120.035156 18.15625 114.722656 24.34375 110.230469 30.601562 C 107.246094 34.78125 100.523438 41.265625 107.574219 45.347656 C 113.445312 48.738281 120.691406 45.675781 126.695312 48.574219 C 134.695312 52.425781 138.367188 60.621094 137.351562 68.191406 Z M 137.351562 68.191406 " fill-opacity="1" fill-rule="nonzero"/></g></g></g></g></svg>